<svg width="191" height="33" viewBox="0 0 191 33" fill="none" xmlns="http://www.w3.org/2000/svg">
<ellipse cx="11.4694" cy="11.4693" rx="2.24388" ry="13.9762" transform="rotate(45 11.4694 11.4693)" fill="#121212"/>
<ellipse cx="16.2294" cy="16.2293" rx="2.24388" ry="13.9762" transform="rotate(45 16.2294 16.2293)" fill="#121212"/>
<ellipse cx="20.9892" cy="20.9893" rx="2.24388" ry="13.9762" transform="rotate(45 20.9892 20.9893)" fill="#121212"/>
<path d="M41.7623 14.987H51.1327V17.8682H41.7623V14.987ZM42.0316 23.065H52.6675V26H38.5311V7.1514H52.2906V10.0864H42.0316V23.065ZM59.8862 26L53.72 11.6212H57.2204L62.525 24.3036H60.8017L66.2947 11.6212H69.5259L63.3597 26H59.8862ZM89.778 11.4597C90.9269 11.4597 91.9411 11.684 92.8207 12.1328C93.7183 12.5816 94.4184 13.2727 94.921 14.2062C95.4236 15.1217 95.6749 16.3064 95.6749 17.7605V26H92.3091V18.1913C92.3091 16.9168 92.0309 15.9654 91.4744 15.3371C90.9179 14.7088 90.1191 14.3947 89.0779 14.3947C88.3419 14.3947 87.6867 14.5562 87.1123 14.8793C86.5558 15.2024 86.116 15.6782 85.7929 16.3064C85.4877 16.9347 85.3351 17.7335 85.3351 18.7029V26H81.9693V18.1913C81.9693 16.9168 81.6911 15.9654 81.1346 15.3371C80.5781 14.7088 79.7793 14.3947 78.7381 14.3947C78.0021 14.3947 77.3469 14.5562 76.7725 14.8793C76.216 15.2024 75.7762 15.6782 75.4531 16.3064C75.1479 16.9347 74.9953 17.7335 74.9953 18.7029V26H71.6295V11.6212H74.8338V15.4448L74.2683 14.3139C74.753 13.3804 75.4531 12.6714 76.3686 12.1867C77.3021 11.702 78.3612 11.4597 79.5459 11.4597C80.8923 11.4597 82.0591 11.7917 83.0464 12.4559C84.0516 13.1201 84.7158 14.1254 85.039 15.4717L83.7196 15.014C84.1863 13.9369 84.9582 13.0752 86.0352 12.429C87.1123 11.7828 88.3599 11.4597 89.778 11.4597ZM106.465 26.1885C104.993 26.1885 103.682 25.8743 102.533 25.2461C101.385 24.5998 100.478 23.7202 99.8138 22.6073C99.1497 21.4943 98.8176 20.2287 98.8176 18.8106C98.8176 17.3745 99.1497 16.109 99.8138 15.014C100.478 13.901 101.385 13.0304 102.533 12.4021C103.682 11.7738 104.993 11.4597 106.465 11.4597C107.955 11.4597 109.274 11.7738 110.423 12.4021C111.59 13.0304 112.496 13.892 113.142 14.987C113.807 16.082 114.139 17.3566 114.139 18.8106C114.139 20.2287 113.807 21.4943 113.142 22.6073C112.496 23.7202 111.59 24.5998 110.423 25.2461C109.274 25.8743 107.955 26.1885 106.465 26.1885ZM106.465 23.3073C107.29 23.3073 108.026 23.1278 108.673 22.7688C109.319 22.4098 109.822 21.8892 110.181 21.2071C110.558 20.5249 110.746 19.7261 110.746 18.8106C110.746 17.8772 110.558 17.0783 110.181 16.4141C109.822 15.732 109.319 15.2114 108.673 14.8524C108.026 14.4934 107.299 14.3139 106.492 14.3139C105.666 14.3139 104.93 14.4934 104.284 14.8524C103.655 15.2114 103.153 15.732 102.776 16.4141C102.399 17.0783 102.21 17.8772 102.21 18.8106C102.21 19.7261 102.399 20.5249 102.776 21.2071C103.153 21.8892 103.655 22.4098 104.284 22.7688C104.93 23.1278 105.657 23.3073 106.465 23.3073ZM123.524 26.2693C122.052 26.2693 120.642 26.0628 119.296 25.65C117.95 25.2191 116.882 24.6716 116.092 24.0074L117.303 21.2879C118.057 21.8802 118.991 22.3739 120.104 22.7688C121.217 23.1637 122.357 23.3612 123.524 23.3612C124.511 23.3612 125.31 23.2535 125.92 23.0381C126.53 22.8227 126.979 22.5354 127.266 22.1764C127.554 21.7995 127.697 21.3776 127.697 20.9109C127.697 20.3364 127.491 19.8787 127.078 19.5376C126.665 19.1786 126.126 18.9004 125.462 18.7029C124.816 18.4875 124.089 18.29 123.281 18.1105C122.491 17.931 121.693 17.7246 120.885 17.4912C120.095 17.2399 119.368 16.9257 118.704 16.5488C118.057 16.1539 117.528 15.6333 117.115 14.987C116.702 14.3408 116.496 13.515 116.496 12.5098C116.496 11.4866 116.765 10.5531 117.303 9.70943C117.86 8.84778 118.695 8.16564 119.808 7.66301C120.939 7.14243 122.366 6.88214 124.089 6.88214C125.22 6.88214 126.342 7.02575 127.455 7.31296C128.568 7.60018 129.537 8.01306 130.363 8.55159L129.259 11.2712C128.415 10.7685 127.545 10.4005 126.647 10.1672C125.749 9.91587 124.888 9.79021 124.062 9.79021C123.093 9.79021 122.303 9.90689 121.693 10.1403C121.1 10.3736 120.66 10.6788 120.373 11.0558C120.104 11.4327 119.969 11.8636 119.969 12.3482C119.969 12.9227 120.167 13.3894 120.562 13.7484C120.974 14.0895 121.504 14.3587 122.15 14.5562C122.814 14.7537 123.55 14.9511 124.358 15.1486C125.166 15.3281 125.965 15.5345 126.755 15.7679C127.563 16.0013 128.29 16.3064 128.936 16.6834C129.6 17.0604 130.13 17.572 130.524 18.2182C130.937 18.8645 131.144 19.6812 131.144 20.6685C131.144 21.6738 130.866 22.6073 130.309 23.4689C129.77 24.3126 128.936 24.9947 127.805 25.5153C126.674 26.018 125.247 26.2693 123.524 26.2693ZM137.206 26L131.928 11.6212H135.106L139.629 24.3036H138.122L142.861 11.6212H145.688L150.292 24.3036H148.811L153.47 11.6212H156.459L151.154 26H147.923L143.722 14.7716H144.719L140.437 26H137.206ZM167.185 26V23.0919L166.996 22.4726V17.3835C166.996 16.3962 166.7 15.6333 166.107 15.0947C165.515 14.5383 164.618 14.26 163.415 14.26C162.607 14.26 161.808 14.3857 161.018 14.637C160.246 14.8883 159.591 15.2383 159.053 15.6871L157.733 13.2368C158.505 12.6444 159.421 12.2046 160.48 11.9174C161.557 11.6122 162.67 11.4597 163.819 11.4597C165.901 11.4597 167.508 11.9623 168.639 12.9675C169.787 13.9549 170.362 15.4897 170.362 17.572V26H167.185ZM162.661 26.1885C161.584 26.1885 160.641 26.009 159.834 25.65C159.026 25.273 158.397 24.7614 157.949 24.1151C157.518 23.451 157.302 22.706 157.302 21.8802C157.302 21.0724 157.491 20.3454 157.868 19.6992C158.263 19.0529 158.9 18.5413 159.78 18.1644C160.659 17.7874 161.826 17.5989 163.28 17.5989H167.454V19.8338H163.523C162.374 19.8338 161.602 20.0223 161.207 20.3993C160.812 20.7583 160.614 21.2071 160.614 21.7456C160.614 22.3559 160.857 22.8406 161.341 23.1996C161.826 23.5587 162.499 23.7382 163.361 23.7382C164.187 23.7382 164.923 23.5497 165.569 23.1727C166.233 22.7957 166.709 22.2393 166.996 21.5033L167.562 23.5228C167.238 24.3665 166.655 25.0217 165.811 25.4884C164.986 25.9551 163.935 26.1885 162.661 26.1885ZM182.652 26.1885C181.485 26.1885 180.417 25.9192 179.447 25.3807C178.496 24.8422 177.733 24.0344 177.159 22.9573C176.602 21.8623 176.324 20.4801 176.324 18.8106C176.324 17.1232 176.593 15.741 177.132 14.6639C177.688 13.5869 178.442 12.788 179.394 12.2675C180.345 11.7289 181.431 11.4597 182.652 11.4597C184.07 11.4597 185.317 11.7648 186.395 12.3752C187.49 12.9855 188.351 13.8382 188.979 14.9332C189.626 16.0282 189.949 17.3207 189.949 18.8106C189.949 20.3005 189.626 21.602 188.979 22.715C188.351 23.81 187.49 24.6626 186.395 25.273C185.317 25.8833 184.07 26.1885 182.652 26.1885ZM174.681 31.2238V11.6212H177.886V15.014L177.778 18.8375L178.047 22.6611V31.2238H174.681ZM182.275 23.3073C183.083 23.3073 183.801 23.1278 184.429 22.7688C185.075 22.4098 185.587 21.8892 185.964 21.2071C186.341 20.5249 186.529 19.7261 186.529 18.8106C186.529 17.8772 186.341 17.0783 185.964 16.4141C185.587 15.732 185.075 15.2114 184.429 14.8524C183.801 14.4934 183.083 14.3139 182.275 14.3139C181.467 14.3139 180.74 14.4934 180.094 14.8524C179.447 15.2114 178.936 15.732 178.559 16.4141C178.182 17.0783 177.993 17.8772 177.993 18.8106C177.993 19.7261 178.182 20.5249 178.559 21.2071C178.936 21.8892 179.447 22.4098 180.094 22.7688C180.74 23.1278 181.467 23.3073 182.275 23.3073Z" fill="#121212"/>
</svg>
