<svg width="14" height="14" viewBox="0 0 14 14" fill="none" xmlns="http://www.w3.org/2000/svg">
<path fill-rule="evenodd" clip-rule="evenodd" d="M1 3.33333C1 1.58319 1.01874 1 3.33333 1C5.64793 1 5.66667 1.58319 5.66667 3.33333C5.66667 5.08348 5.67405 5.66667 3.33333 5.66667C0.992618 5.66667 1 5.08348 1 3.33333Z" stroke="white" stroke-linecap="round" stroke-linejoin="round"/>
<path fill-rule="evenodd" clip-rule="evenodd" d="M8.33398 3.33333C8.33398 1.58319 8.35272 1 10.6673 1C12.9819 1 13.0007 1.58319 13.0007 3.33333C13.0007 5.08348 13.008 5.66667 10.6673 5.66667C8.3266 5.66667 8.33398 5.08348 8.33398 3.33333Z" stroke="white" stroke-linecap="round" stroke-linejoin="round"/>
<path fill-rule="evenodd" clip-rule="evenodd" d="M1 10.6667C1 8.91653 1.01874 8.33334 3.33333 8.33334C5.64793 8.33334 5.66667 8.91653 5.66667 10.6667C5.66667 12.4168 5.67405 13 3.33333 13C0.992618 13 1 12.4168 1 10.6667Z" stroke="white" stroke-linecap="round" stroke-linejoin="round"/>
<path fill-rule="evenodd" clip-rule="evenodd" d="M8.33398 10.6667C8.33398 8.91653 8.35272 8.33334 10.6673 8.33334C12.9819 8.33334 13.0007 8.91653 13.0007 10.6667C13.0007 12.4168 13.008 13 10.6673 13C8.3266 13 8.33398 12.4168 8.33398 10.6667Z" stroke="white" stroke-linecap="round" stroke-linejoin="round"/>
</svg>
