<svg width="1366" height="1100" viewBox="0 0 1366 1100" fill="none" xmlns="http://www.w3.org/2000/svg">
<g clip-path="url(#clip0_698_15696)">
<path d="M7 0L8.89064 5.10936L14 7L8.89064 8.89064L7 14L5.10936 8.89064L0 7L5.10936 5.10936L7 0Z" fill="#F2F7FF"/>
<path d="M7 114L8.89064 119.109L14 121L8.89064 122.891L7 128L5.10936 122.891L0 121L5.10936 119.109L7 114Z" fill="#F2F7FF"/>
<path d="M7 228L8.89064 233.109L14 235L8.89064 236.891L7 242L5.10936 236.891L0 235L5.10936 233.109L7 228Z" fill="#F2F7FF"/>
<path d="M7 342L8.89064 347.109L14 349L8.89064 350.891L7 356L5.10936 350.891L0 349L5.10936 347.109L7 342Z" fill="#F2F7FF"/>
<path d="M7 456L8.89064 461.109L14 463L8.89064 464.891L7 470L5.10936 464.891L0 463L5.10936 461.109L7 456Z" fill="#F2F7FF"/>
<path d="M7 570L8.89064 575.109L14 577L8.89064 578.891L7 584L5.10936 578.891L0 577L5.10936 575.109L7 570Z" fill="#F2F7FF"/>
<path d="M7 684L8.89064 689.109L14 691L8.89064 692.891L7 698L5.10936 692.891L0 691L5.10936 689.109L7 684Z" fill="#F2F7FF"/>
<path d="M7 798L8.89064 803.109L14 805L8.89064 806.891L7 812L5.10936 806.891L0 805L5.10936 803.109L7 798Z" fill="#F2F7FF"/>
<path d="M7 912L8.89064 917.109L14 919L8.89064 920.891L7 926L5.10936 920.891L0 919L5.10936 917.109L7 912Z" fill="#F2F7FF"/>
<path d="M7 1026L8.89064 1031.11L14 1033L8.89064 1034.89L7 1040L5.10936 1034.89L0 1033L5.10936 1031.11L7 1026Z" fill="#F2F7FF"/>
<path d="M151 0L152.891 5.10936L158 7L152.891 8.89064L151 14L149.109 8.89064L144 7L149.109 5.10936L151 0Z" fill="#F2F7FF"/>
<path d="M151 114L152.891 119.109L158 121L152.891 122.891L151 128L149.109 122.891L144 121L149.109 119.109L151 114Z" fill="#F2F7FF"/>
<path d="M151 228L152.891 233.109L158 235L152.891 236.891L151 242L149.109 236.891L144 235L149.109 233.109L151 228Z" fill="#F2F7FF"/>
<path d="M151 342L152.891 347.109L158 349L152.891 350.891L151 356L149.109 350.891L144 349L149.109 347.109L151 342Z" fill="#F2F7FF"/>
<path d="M151 456L152.891 461.109L158 463L152.891 464.891L151 470L149.109 464.891L144 463L149.109 461.109L151 456Z" fill="#F2F7FF"/>
<path d="M151 570L152.891 575.109L158 577L152.891 578.891L151 584L149.109 578.891L144 577L149.109 575.109L151 570Z" fill="#F2F7FF"/>
<path d="M151 684L152.891 689.109L158 691L152.891 692.891L151 698L149.109 692.891L144 691L149.109 689.109L151 684Z" fill="#F2F7FF"/>
<path d="M151 798L152.891 803.109L158 805L152.891 806.891L151 812L149.109 806.891L144 805L149.109 803.109L151 798Z" fill="#F2F7FF"/>
<path d="M151 912L152.891 917.109L158 919L152.891 920.891L151 926L149.109 920.891L144 919L149.109 917.109L151 912Z" fill="#F2F7FF"/>
<path d="M151 1026L152.891 1031.11L158 1033L152.891 1034.89L151 1040L149.109 1034.89L144 1033L149.109 1031.11L151 1026Z" fill="#F2F7FF"/>
<path d="M295 0L296.891 5.10936L302 7L296.891 8.89064L295 14L293.109 8.89064L288 7L293.109 5.10936L295 0Z" fill="#F2F7FF"/>
<path d="M295 114L296.891 119.109L302 121L296.891 122.891L295 128L293.109 122.891L288 121L293.109 119.109L295 114Z" fill="#F2F7FF"/>
<path d="M295 228L296.891 233.109L302 235L296.891 236.891L295 242L293.109 236.891L288 235L293.109 233.109L295 228Z" fill="#F2F7FF"/>
<path d="M295 342L296.891 347.109L302 349L296.891 350.891L295 356L293.109 350.891L288 349L293.109 347.109L295 342Z" fill="#F2F7FF"/>
<path d="M295 456L296.891 461.109L302 463L296.891 464.891L295 470L293.109 464.891L288 463L293.109 461.109L295 456Z" fill="#F2F7FF"/>
<path d="M295 570L296.891 575.109L302 577L296.891 578.891L295 584L293.109 578.891L288 577L293.109 575.109L295 570Z" fill="#F2F7FF"/>
<path d="M295 684L296.891 689.109L302 691L296.891 692.891L295 698L293.109 692.891L288 691L293.109 689.109L295 684Z" fill="#F2F7FF"/>
<path d="M295 798L296.891 803.109L302 805L296.891 806.891L295 812L293.109 806.891L288 805L293.109 803.109L295 798Z" fill="#F2F7FF"/>
<path d="M295 912L296.891 917.109L302 919L296.891 920.891L295 926L293.109 920.891L288 919L293.109 917.109L295 912Z" fill="#F2F7FF"/>
<path d="M295 1026L296.891 1031.11L302 1033L296.891 1034.89L295 1040L293.109 1034.89L288 1033L293.109 1031.11L295 1026Z" fill="#F2F7FF"/>
<path d="M439 0L440.891 5.10936L446 7L440.891 8.89064L439 14L437.109 8.89064L432 7L437.109 5.10936L439 0Z" fill="#F2F7FF"/>
<path d="M439 114L440.891 119.109L446 121L440.891 122.891L439 128L437.109 122.891L432 121L437.109 119.109L439 114Z" fill="#F2F7FF"/>
<path d="M439 228L440.891 233.109L446 235L440.891 236.891L439 242L437.109 236.891L432 235L437.109 233.109L439 228Z" fill="#F2F7FF"/>
<path d="M439 342L440.891 347.109L446 349L440.891 350.891L439 356L437.109 350.891L432 349L437.109 347.109L439 342Z" fill="#F2F7FF"/>
<path d="M439 456L440.891 461.109L446 463L440.891 464.891L439 470L437.109 464.891L432 463L437.109 461.109L439 456Z" fill="#F2F7FF"/>
<path d="M439 570L440.891 575.109L446 577L440.891 578.891L439 584L437.109 578.891L432 577L437.109 575.109L439 570Z" fill="#F2F7FF"/>
<path d="M439 684L440.891 689.109L446 691L440.891 692.891L439 698L437.109 692.891L432 691L437.109 689.109L439 684Z" fill="#F2F7FF"/>
<path d="M439 798L440.891 803.109L446 805L440.891 806.891L439 812L437.109 806.891L432 805L437.109 803.109L439 798Z" fill="#F2F7FF"/>
<path d="M439 912L440.891 917.109L446 919L440.891 920.891L439 926L437.109 920.891L432 919L437.109 917.109L439 912Z" fill="#F2F7FF"/>
<path d="M439 1026L440.891 1031.11L446 1033L440.891 1034.89L439 1040L437.109 1034.89L432 1033L437.109 1031.11L439 1026Z" fill="#F2F7FF"/>
<path d="M583 0L584.891 5.10936L590 7L584.891 8.89064L583 14L581.109 8.89064L576 7L581.109 5.10936L583 0Z" fill="#F2F7FF"/>
<path d="M583 114L584.891 119.109L590 121L584.891 122.891L583 128L581.109 122.891L576 121L581.109 119.109L583 114Z" fill="#F2F7FF"/>
<path d="M583 228L584.891 233.109L590 235L584.891 236.891L583 242L581.109 236.891L576 235L581.109 233.109L583 228Z" fill="#F2F7FF"/>
<path d="M583 342L584.891 347.109L590 349L584.891 350.891L583 356L581.109 350.891L576 349L581.109 347.109L583 342Z" fill="#F2F7FF"/>
<path d="M583 456L584.891 461.109L590 463L584.891 464.891L583 470L581.109 464.891L576 463L581.109 461.109L583 456Z" fill="#F2F7FF"/>
<path d="M583 570L584.891 575.109L590 577L584.891 578.891L583 584L581.109 578.891L576 577L581.109 575.109L583 570Z" fill="#F2F7FF"/>
<path d="M583 684L584.891 689.109L590 691L584.891 692.891L583 698L581.109 692.891L576 691L581.109 689.109L583 684Z" fill="#F2F7FF"/>
<path d="M583 798L584.891 803.109L590 805L584.891 806.891L583 812L581.109 806.891L576 805L581.109 803.109L583 798Z" fill="#F2F7FF"/>
<path d="M583 912L584.891 917.109L590 919L584.891 920.891L583 926L581.109 920.891L576 919L581.109 917.109L583 912Z" fill="#F2F7FF"/>
<path d="M583 1026L584.891 1031.11L590 1033L584.891 1034.89L583 1040L581.109 1034.89L576 1033L581.109 1031.11L583 1026Z" fill="#F2F7FF"/>
<path d="M727 0L728.891 5.10936L734 7L728.891 8.89064L727 14L725.109 8.89064L720 7L725.109 5.10936L727 0Z" fill="#F2F7FF"/>
<path d="M727 114L728.891 119.109L734 121L728.891 122.891L727 128L725.109 122.891L720 121L725.109 119.109L727 114Z" fill="#F2F7FF"/>
<path d="M727 228L728.891 233.109L734 235L728.891 236.891L727 242L725.109 236.891L720 235L725.109 233.109L727 228Z" fill="#F2F7FF"/>
<path d="M727 342L728.891 347.109L734 349L728.891 350.891L727 356L725.109 350.891L720 349L725.109 347.109L727 342Z" fill="#F2F7FF"/>
<path d="M727 456L728.891 461.109L734 463L728.891 464.891L727 470L725.109 464.891L720 463L725.109 461.109L727 456Z" fill="#F2F7FF"/>
<path d="M727 570L728.891 575.109L734 577L728.891 578.891L727 584L725.109 578.891L720 577L725.109 575.109L727 570Z" fill="#F2F7FF"/>
<path d="M727 684L728.891 689.109L734 691L728.891 692.891L727 698L725.109 692.891L720 691L725.109 689.109L727 684Z" fill="#F2F7FF"/>
<path d="M727 798L728.891 803.109L734 805L728.891 806.891L727 812L725.109 806.891L720 805L725.109 803.109L727 798Z" fill="#F2F7FF"/>
<path d="M727 912L728.891 917.109L734 919L728.891 920.891L727 926L725.109 920.891L720 919L725.109 917.109L727 912Z" fill="#F2F7FF"/>
<path d="M727 1026L728.891 1031.11L734 1033L728.891 1034.89L727 1040L725.109 1034.89L720 1033L725.109 1031.11L727 1026Z" fill="#F2F7FF"/>
<path d="M871 0L872.891 5.10936L878 7L872.891 8.89064L871 14L869.109 8.89064L864 7L869.109 5.10936L871 0Z" fill="#F2F7FF"/>
<path d="M871 114L872.891 119.109L878 121L872.891 122.891L871 128L869.109 122.891L864 121L869.109 119.109L871 114Z" fill="#F2F7FF"/>
<path d="M871 228L872.891 233.109L878 235L872.891 236.891L871 242L869.109 236.891L864 235L869.109 233.109L871 228Z" fill="#F2F7FF"/>
<path d="M871 342L872.891 347.109L878 349L872.891 350.891L871 356L869.109 350.891L864 349L869.109 347.109L871 342Z" fill="#F2F7FF"/>
<path d="M871 456L872.891 461.109L878 463L872.891 464.891L871 470L869.109 464.891L864 463L869.109 461.109L871 456Z" fill="#F2F7FF"/>
<path d="M871 570L872.891 575.109L878 577L872.891 578.891L871 584L869.109 578.891L864 577L869.109 575.109L871 570Z" fill="#F2F7FF"/>
<path d="M871 684L872.891 689.109L878 691L872.891 692.891L871 698L869.109 692.891L864 691L869.109 689.109L871 684Z" fill="#F2F7FF"/>
<path d="M871 798L872.891 803.109L878 805L872.891 806.891L871 812L869.109 806.891L864 805L869.109 803.109L871 798Z" fill="#F2F7FF"/>
<path d="M871 912L872.891 917.109L878 919L872.891 920.891L871 926L869.109 920.891L864 919L869.109 917.109L871 912Z" fill="#F2F7FF"/>
<path d="M871 1026L872.891 1031.11L878 1033L872.891 1034.89L871 1040L869.109 1034.89L864 1033L869.109 1031.11L871 1026Z" fill="#F2F7FF"/>
<path d="M1015 0L1016.89 5.10936L1022 7L1016.89 8.89064L1015 14L1013.11 8.89064L1008 7L1013.11 5.10936L1015 0Z" fill="#F2F7FF"/>
<path d="M1015 114L1016.89 119.109L1022 121L1016.89 122.891L1015 128L1013.11 122.891L1008 121L1013.11 119.109L1015 114Z" fill="#F2F7FF"/>
<path d="M1015 228L1016.89 233.109L1022 235L1016.89 236.891L1015 242L1013.11 236.891L1008 235L1013.11 233.109L1015 228Z" fill="#F2F7FF"/>
<path d="M1015 342L1016.89 347.109L1022 349L1016.89 350.891L1015 356L1013.11 350.891L1008 349L1013.11 347.109L1015 342Z" fill="#F2F7FF"/>
<path d="M1015 456L1016.89 461.109L1022 463L1016.89 464.891L1015 470L1013.11 464.891L1008 463L1013.11 461.109L1015 456Z" fill="#F2F7FF"/>
<path d="M1015 570L1016.89 575.109L1022 577L1016.89 578.891L1015 584L1013.11 578.891L1008 577L1013.11 575.109L1015 570Z" fill="#F2F7FF"/>
<path d="M1015 684L1016.89 689.109L1022 691L1016.89 692.891L1015 698L1013.11 692.891L1008 691L1013.11 689.109L1015 684Z" fill="#F2F7FF"/>
<path d="M1015 798L1016.89 803.109L1022 805L1016.89 806.891L1015 812L1013.11 806.891L1008 805L1013.11 803.109L1015 798Z" fill="#F2F7FF"/>
<path d="M1015 912L1016.89 917.109L1022 919L1016.89 920.891L1015 926L1013.11 920.891L1008 919L1013.11 917.109L1015 912Z" fill="#F2F7FF"/>
<path d="M1015 1026L1016.89 1031.11L1022 1033L1016.89 1034.89L1015 1040L1013.11 1034.89L1008 1033L1013.11 1031.11L1015 1026Z" fill="#F2F7FF"/>
<path d="M1159 0L1160.89 5.10936L1166 7L1160.89 8.89064L1159 14L1157.11 8.89064L1152 7L1157.11 5.10936L1159 0Z" fill="#F2F7FF"/>
<path d="M1159 114L1160.89 119.109L1166 121L1160.89 122.891L1159 128L1157.11 122.891L1152 121L1157.11 119.109L1159 114Z" fill="#F2F7FF"/>
<path d="M1159 228L1160.89 233.109L1166 235L1160.89 236.891L1159 242L1157.11 236.891L1152 235L1157.11 233.109L1159 228Z" fill="#F2F7FF"/>
<path d="M1159 342L1160.89 347.109L1166 349L1160.89 350.891L1159 356L1157.11 350.891L1152 349L1157.11 347.109L1159 342Z" fill="#F2F7FF"/>
<path d="M1159 456L1160.89 461.109L1166 463L1160.89 464.891L1159 470L1157.11 464.891L1152 463L1157.11 461.109L1159 456Z" fill="#F2F7FF"/>
<path d="M1159 570L1160.89 575.109L1166 577L1160.89 578.891L1159 584L1157.11 578.891L1152 577L1157.11 575.109L1159 570Z" fill="#F2F7FF"/>
<path d="M1159 684L1160.89 689.109L1166 691L1160.89 692.891L1159 698L1157.11 692.891L1152 691L1157.11 689.109L1159 684Z" fill="#F2F7FF"/>
<path d="M1159 798L1160.89 803.109L1166 805L1160.89 806.891L1159 812L1157.11 806.891L1152 805L1157.11 803.109L1159 798Z" fill="#F2F7FF"/>
<path d="M1159 912L1160.89 917.109L1166 919L1160.89 920.891L1159 926L1157.11 920.891L1152 919L1157.11 917.109L1159 912Z" fill="#F2F7FF"/>
<path d="M1159 1026L1160.89 1031.11L1166 1033L1160.89 1034.89L1159 1040L1157.11 1034.89L1152 1033L1157.11 1031.11L1159 1026Z" fill="#F2F7FF"/>
<path d="M1303 0L1304.89 5.10936L1310 7L1304.89 8.89064L1303 14L1301.11 8.89064L1296 7L1301.11 5.10936L1303 0Z" fill="#F2F7FF"/>
<path d="M1303 114L1304.89 119.109L1310 121L1304.89 122.891L1303 128L1301.11 122.891L1296 121L1301.11 119.109L1303 114Z" fill="#F2F7FF"/>
<path d="M1303 228L1304.89 233.109L1310 235L1304.89 236.891L1303 242L1301.11 236.891L1296 235L1301.11 233.109L1303 228Z" fill="#F2F7FF"/>
<path d="M1303 342L1304.89 347.109L1310 349L1304.89 350.891L1303 356L1301.11 350.891L1296 349L1301.11 347.109L1303 342Z" fill="#F2F7FF"/>
<path d="M1303 456L1304.89 461.109L1310 463L1304.89 464.891L1303 470L1301.11 464.891L1296 463L1301.11 461.109L1303 456Z" fill="#F2F7FF"/>
<path d="M1303 570L1304.89 575.109L1310 577L1304.89 578.891L1303 584L1301.11 578.891L1296 577L1301.11 575.109L1303 570Z" fill="#F2F7FF"/>
<path d="M1303 684L1304.89 689.109L1310 691L1304.89 692.891L1303 698L1301.11 692.891L1296 691L1301.11 689.109L1303 684Z" fill="#F2F7FF"/>
<path d="M1303 798L1304.89 803.109L1310 805L1304.89 806.891L1303 812L1301.11 806.891L1296 805L1301.11 803.109L1303 798Z" fill="#F2F7FF"/>
<path d="M1303 912L1304.89 917.109L1310 919L1304.89 920.891L1303 926L1301.11 920.891L1296 919L1301.11 917.109L1303 912Z" fill="#F2F7FF"/>
<path d="M1303 1026L1304.89 1031.11L1310 1033L1304.89 1034.89L1303 1040L1301.11 1034.89L1296 1033L1301.11 1031.11L1303 1026Z" fill="#F2F7FF"/>
</g>
<defs>
<clipPath id="clip0_698_15696">
<rect width="1366" height="1100" fill="white"/>
</clipPath>
</defs>
</svg>
