<svg width="1440" height="1100" viewBox="0 0 1440 1100" fill="none" xmlns="http://www.w3.org/2000/svg">
<g clip-path="url(#clip0_698_15696)">
<path d="M6 0L7.62054 4.37946L12 6L7.62054 7.62054L6 12L4.37946 7.62054L0 6L4.37946 4.37946L6 0Z" fill="#171717"/>
<path d="M6 132L7.62054 136.379L12 138L7.62054 139.621L6 144L4.37946 139.621L0 138L4.37946 136.379L6 132Z" fill="#171717"/>
<path d="M6 264L7.62054 268.379L12 270L7.62054 271.621L6 276L4.37946 271.621L0 270L4.37946 268.379L6 264Z" fill="#171717"/>
<path d="M6 396L7.62054 400.379L12 402L7.62054 403.621L6 408L4.37946 403.621L0 402L4.37946 400.379L6 396Z" fill="#171717"/>
<path d="M6 528L7.62054 532.379L12 534L7.62054 535.621L6 540L4.37946 535.621L0 534L4.37946 532.379L6 528Z" fill="#171717"/>
<path d="M6 660L7.62054 664.379L12 666L7.62054 667.621L6 672L4.37946 667.621L0 666L4.37946 664.379L6 660Z" fill="#171717"/>
<path d="M6 792L7.62054 796.379L12 798L7.62054 799.621L6 804L4.37946 799.621L0 798L4.37946 796.379L6 792Z" fill="#171717"/>
<path d="M6 924L7.62054 928.379L12 930L7.62054 931.621L6 936L4.37946 931.621L0 930L4.37946 928.379L6 924Z" fill="#171717"/>
<path d="M6 1056L7.62054 1060.38L12 1062L7.62054 1063.62L6 1068L4.37946 1063.62L0 1062L4.37946 1060.38L6 1056Z" fill="#171717"/>
<path d="M168 0L169.621 4.37946L174 6L169.621 7.62054L168 12L166.379 7.62054L162 6L166.379 4.37946L168 0Z" fill="#171717"/>
<path d="M168 132L169.621 136.379L174 138L169.621 139.621L168 144L166.379 139.621L162 138L166.379 136.379L168 132Z" fill="#171717"/>
<path d="M168 264L169.621 268.379L174 270L169.621 271.621L168 276L166.379 271.621L162 270L166.379 268.379L168 264Z" fill="#171717"/>
<path d="M168 396L169.621 400.379L174 402L169.621 403.621L168 408L166.379 403.621L162 402L166.379 400.379L168 396Z" fill="#171717"/>
<path d="M168 528L169.621 532.379L174 534L169.621 535.621L168 540L166.379 535.621L162 534L166.379 532.379L168 528Z" fill="#171717"/>
<path d="M168 660L169.621 664.379L174 666L169.621 667.621L168 672L166.379 667.621L162 666L166.379 664.379L168 660Z" fill="#171717"/>
<path d="M168 792L169.621 796.379L174 798L169.621 799.621L168 804L166.379 799.621L162 798L166.379 796.379L168 792Z" fill="#171717"/>
<path d="M168 924L169.621 928.379L174 930L169.621 931.621L168 936L166.379 931.621L162 930L166.379 928.379L168 924Z" fill="#171717"/>
<path d="M168 1056L169.621 1060.38L174 1062L169.621 1063.62L168 1068L166.379 1063.62L162 1062L166.379 1060.38L168 1056Z" fill="#171717"/>
<path d="M330 0L331.621 4.37946L336 6L331.621 7.62054L330 12L328.379 7.62054L324 6L328.379 4.37946L330 0Z" fill="#171717"/>
<path d="M330 132L331.621 136.379L336 138L331.621 139.621L330 144L328.379 139.621L324 138L328.379 136.379L330 132Z" fill="#171717"/>
<path d="M330 264L331.621 268.379L336 270L331.621 271.621L330 276L328.379 271.621L324 270L328.379 268.379L330 264Z" fill="#171717"/>
<path d="M330 396L331.621 400.379L336 402L331.621 403.621L330 408L328.379 403.621L324 402L328.379 400.379L330 396Z" fill="#171717"/>
<path d="M330 528L331.621 532.379L336 534L331.621 535.621L330 540L328.379 535.621L324 534L328.379 532.379L330 528Z" fill="#171717"/>
<path d="M330 660L331.621 664.379L336 666L331.621 667.621L330 672L328.379 667.621L324 666L328.379 664.379L330 660Z" fill="#171717"/>
<path d="M330 792L331.621 796.379L336 798L331.621 799.621L330 804L328.379 799.621L324 798L328.379 796.379L330 792Z" fill="#171717"/>
<path d="M330 924L331.621 928.379L336 930L331.621 931.621L330 936L328.379 931.621L324 930L328.379 928.379L330 924Z" fill="#171717"/>
<path d="M330 1056L331.621 1060.38L336 1062L331.621 1063.62L330 1068L328.379 1063.62L324 1062L328.379 1060.38L330 1056Z" fill="#171717"/>
<path d="M492 0L493.621 4.37946L498 6L493.621 7.62054L492 12L490.379 7.62054L486 6L490.379 4.37946L492 0Z" fill="#171717"/>
<path d="M492 132L493.621 136.379L498 138L493.621 139.621L492 144L490.379 139.621L486 138L490.379 136.379L492 132Z" fill="#171717"/>
<path d="M492 264L493.621 268.379L498 270L493.621 271.621L492 276L490.379 271.621L486 270L490.379 268.379L492 264Z" fill="#171717"/>
<path d="M492 396L493.621 400.379L498 402L493.621 403.621L492 408L490.379 403.621L486 402L490.379 400.379L492 396Z" fill="#171717"/>
<path d="M492 528L493.621 532.379L498 534L493.621 535.621L492 540L490.379 535.621L486 534L490.379 532.379L492 528Z" fill="#171717"/>
<path d="M492 660L493.621 664.379L498 666L493.621 667.621L492 672L490.379 667.621L486 666L490.379 664.379L492 660Z" fill="#171717"/>
<path d="M492 792L493.621 796.379L498 798L493.621 799.621L492 804L490.379 799.621L486 798L490.379 796.379L492 792Z" fill="#171717"/>
<path d="M492 924L493.621 928.379L498 930L493.621 931.621L492 936L490.379 931.621L486 930L490.379 928.379L492 924Z" fill="#171717"/>
<path d="M492 1056L493.621 1060.38L498 1062L493.621 1063.62L492 1068L490.379 1063.62L486 1062L490.379 1060.38L492 1056Z" fill="#171717"/>
<path d="M654 0L655.621 4.37946L660 6L655.621 7.62054L654 12L652.379 7.62054L648 6L652.379 4.37946L654 0Z" fill="#171717"/>
<path d="M654 132L655.621 136.379L660 138L655.621 139.621L654 144L652.379 139.621L648 138L652.379 136.379L654 132Z" fill="#171717"/>
<path d="M654 264L655.621 268.379L660 270L655.621 271.621L654 276L652.379 271.621L648 270L652.379 268.379L654 264Z" fill="#171717"/>
<path d="M654 396L655.621 400.379L660 402L655.621 403.621L654 408L652.379 403.621L648 402L652.379 400.379L654 396Z" fill="#171717"/>
<path d="M654 528L655.621 532.379L660 534L655.621 535.621L654 540L652.379 535.621L648 534L652.379 532.379L654 528Z" fill="#171717"/>
<path d="M654 660L655.621 664.379L660 666L655.621 667.621L654 672L652.379 667.621L648 666L652.379 664.379L654 660Z" fill="#171717"/>
<path d="M654 792L655.621 796.379L660 798L655.621 799.621L654 804L652.379 799.621L648 798L652.379 796.379L654 792Z" fill="#171717"/>
<path d="M654 924L655.621 928.379L660 930L655.621 931.621L654 936L652.379 931.621L648 930L652.379 928.379L654 924Z" fill="#171717"/>
<path d="M654 1056L655.621 1060.38L660 1062L655.621 1063.62L654 1068L652.379 1063.62L648 1062L652.379 1060.38L654 1056Z" fill="#171717"/>
<path d="M816 0L817.621 4.37946L822 6L817.621 7.62054L816 12L814.379 7.62054L810 6L814.379 4.37946L816 0Z" fill="#171717"/>
<path d="M816 132L817.621 136.379L822 138L817.621 139.621L816 144L814.379 139.621L810 138L814.379 136.379L816 132Z" fill="#171717"/>
<path d="M816 264L817.621 268.379L822 270L817.621 271.621L816 276L814.379 271.621L810 270L814.379 268.379L816 264Z" fill="#171717"/>
<path d="M816 396L817.621 400.379L822 402L817.621 403.621L816 408L814.379 403.621L810 402L814.379 400.379L816 396Z" fill="#171717"/>
<path d="M816 528L817.621 532.379L822 534L817.621 535.621L816 540L814.379 535.621L810 534L814.379 532.379L816 528Z" fill="#171717"/>
<path d="M816 660L817.621 664.379L822 666L817.621 667.621L816 672L814.379 667.621L810 666L814.379 664.379L816 660Z" fill="#171717"/>
<path d="M816 792L817.621 796.379L822 798L817.621 799.621L816 804L814.379 799.621L810 798L814.379 796.379L816 792Z" fill="#171717"/>
<path d="M816 924L817.621 928.379L822 930L817.621 931.621L816 936L814.379 931.621L810 930L814.379 928.379L816 924Z" fill="#171717"/>
<path d="M816 1056L817.621 1060.38L822 1062L817.621 1063.62L816 1068L814.379 1063.62L810 1062L814.379 1060.38L816 1056Z" fill="#171717"/>
<path d="M978 0L979.621 4.37946L984 6L979.621 7.62054L978 12L976.379 7.62054L972 6L976.379 4.37946L978 0Z" fill="#171717"/>
<path d="M978 132L979.621 136.379L984 138L979.621 139.621L978 144L976.379 139.621L972 138L976.379 136.379L978 132Z" fill="#171717"/>
<path d="M978 264L979.621 268.379L984 270L979.621 271.621L978 276L976.379 271.621L972 270L976.379 268.379L978 264Z" fill="#171717"/>
<path d="M978 396L979.621 400.379L984 402L979.621 403.621L978 408L976.379 403.621L972 402L976.379 400.379L978 396Z" fill="#171717"/>
<path d="M978 528L979.621 532.379L984 534L979.621 535.621L978 540L976.379 535.621L972 534L976.379 532.379L978 528Z" fill="#171717"/>
<path d="M978 660L979.621 664.379L984 666L979.621 667.621L978 672L976.379 667.621L972 666L976.379 664.379L978 660Z" fill="#171717"/>
<path d="M978 792L979.621 796.379L984 798L979.621 799.621L978 804L976.379 799.621L972 798L976.379 796.379L978 792Z" fill="#171717"/>
<path d="M978 924L979.621 928.379L984 930L979.621 931.621L978 936L976.379 931.621L972 930L976.379 928.379L978 924Z" fill="#171717"/>
<path d="M978 1056L979.621 1060.38L984 1062L979.621 1063.62L978 1068L976.379 1063.62L972 1062L976.379 1060.38L978 1056Z" fill="#171717"/>
<path d="M1140 0L1141.62 4.37946L1146 6L1141.62 7.62054L1140 12L1138.38 7.62054L1134 6L1138.38 4.37946L1140 0Z" fill="#171717"/>
<path d="M1140 132L1141.62 136.379L1146 138L1141.62 139.621L1140 144L1138.38 139.621L1134 138L1138.38 136.379L1140 132Z" fill="#171717"/>
<path d="M1140 264L1141.62 268.379L1146 270L1141.62 271.621L1140 276L1138.38 271.621L1134 270L1138.38 268.379L1140 264Z" fill="#171717"/>
<path d="M1140 396L1141.62 400.379L1146 402L1141.62 403.621L1140 408L1138.38 403.621L1134 402L1138.38 400.379L1140 396Z" fill="#171717"/>
<path d="M1140 528L1141.62 532.379L1146 534L1141.62 535.621L1140 540L1138.38 535.621L1134 534L1138.38 532.379L1140 528Z" fill="#171717"/>
<path d="M1140 660L1141.62 664.379L1146 666L1141.62 667.621L1140 672L1138.38 667.621L1134 666L1138.38 664.379L1140 660Z" fill="#171717"/>
<path d="M1140 792L1141.62 796.379L1146 798L1141.62 799.621L1140 804L1138.38 799.621L1134 798L1138.38 796.379L1140 792Z" fill="#171717"/>
<path d="M1140 924L1141.62 928.379L1146 930L1141.62 931.621L1140 936L1138.38 931.621L1134 930L1138.38 928.379L1140 924Z" fill="#171717"/>
<path d="M1140 1056L1141.62 1060.38L1146 1062L1141.62 1063.62L1140 1068L1138.38 1063.62L1134 1062L1138.38 1060.38L1140 1056Z" fill="#171717"/>
<path d="M1302 0L1303.62 4.37946L1308 6L1303.62 7.62054L1302 12L1300.38 7.62054L1296 6L1300.38 4.37946L1302 0Z" fill="#171717"/>
<path d="M1302 132L1303.62 136.379L1308 138L1303.62 139.621L1302 144L1300.38 139.621L1296 138L1300.38 136.379L1302 132Z" fill="#171717"/>
<path d="M1302 264L1303.62 268.379L1308 270L1303.62 271.621L1302 276L1300.38 271.621L1296 270L1300.38 268.379L1302 264Z" fill="#171717"/>
<path d="M1302 396L1303.62 400.379L1308 402L1303.62 403.621L1302 408L1300.38 403.621L1296 402L1300.38 400.379L1302 396Z" fill="#171717"/>
<path d="M1302 528L1303.62 532.379L1308 534L1303.62 535.621L1302 540L1300.38 535.621L1296 534L1300.38 532.379L1302 528Z" fill="#171717"/>
<path d="M1302 660L1303.62 664.379L1308 666L1303.62 667.621L1302 672L1300.38 667.621L1296 666L1300.38 664.379L1302 660Z" fill="#171717"/>
<path d="M1302 792L1303.62 796.379L1308 798L1303.62 799.621L1302 804L1300.38 799.621L1296 798L1300.38 796.379L1302 792Z" fill="#171717"/>
<path d="M1302 924L1303.62 928.379L1308 930L1303.62 931.621L1302 936L1300.38 931.621L1296 930L1300.38 928.379L1302 924Z" fill="#171717"/>
<path d="M1302 1056L1303.62 1060.38L1308 1062L1303.62 1063.62L1302 1068L1300.38 1063.62L1296 1062L1300.38 1060.38L1302 1056Z" fill="#171717"/>
</g>
<defs>
<clipPath id="clip0_698_15696">
<rect width="1440" height="1100" fill="white"/>
</clipPath>
</defs>
</svg>
