<svg width="62" height="62" viewBox="0 0 62 62" fill="none" xmlns="http://www.w3.org/2000/svg">
<path d="M31 2.58325C25.3797 2.58325 19.8856 4.24986 15.2126 7.37231C10.5395 10.4948 6.89721 14.9329 4.74643 20.1253C2.59565 25.3178 2.0329 31.0314 3.12937 36.5438C4.22582 42.0561 6.93224 47.1194 10.9064 51.0936C14.8805 55.0678 19.9439 57.7741 25.4562 58.8705C30.9685 59.9671 36.682 59.4042 41.8745 57.2536C47.067 55.1027 51.5052 51.4604 54.6277 46.7874C57.7502 42.1142 59.4167 36.6202 59.4167 30.9999C59.4167 23.4634 56.4228 16.2355 51.0937 10.9063C45.7645 5.57715 38.5366 2.58325 31 2.58325ZM31 54.2499C26.4017 54.2499 21.9065 52.8864 18.083 50.3315C14.2596 47.7769 11.2796 44.1457 9.51981 39.8974C7.76007 35.6489 7.29965 30.9741 8.19676 26.4641C9.09385 21.954 11.3082 17.8113 14.5598 14.5597C17.8114 11.3081 21.9541 9.09377 26.4642 8.19665C30.9742 7.29957 35.649 7.75999 39.8975 9.51971C44.1458 11.2794 47.7769 14.2595 50.3316 18.0829C52.8865 21.9064 54.25 26.4016 54.25 30.9999C54.25 37.1661 51.8005 43.0798 47.4403 47.4403C43.0799 51.8004 37.1664 54.2499 31 54.2499ZM36.1667 18.0833V15.4999C36.1667 14.8148 35.8944 14.1577 35.41 13.6732C34.9256 13.1888 34.2684 12.9166 33.5833 12.9166C32.8982 12.9166 32.241 13.1888 31.7567 13.6732C31.2723 14.1577 31 14.8148 31 15.4999V18.0833H28.4167V15.4999C28.4167 14.8148 28.1444 14.1577 27.66 13.6732C27.1756 13.1888 26.5184 12.9166 25.8333 12.9166C25.1482 12.9166 24.4911 13.1888 24.0067 13.6732C23.5222 14.1577 23.25 14.8148 23.25 15.4999V18.0833H20.6667C19.9815 18.0833 19.3244 18.3554 18.84 18.8399C18.3555 19.3244 18.0833 19.9814 18.0833 20.6666C18.0833 21.3517 18.3555 22.0088 18.84 22.4933C19.3244 22.9777 19.9815 23.2499 20.6667 23.2499H23.25V38.7499H20.6667C19.9815 38.7499 19.3244 39.0222 18.84 39.5066C18.3555 39.991 18.0833 40.6482 18.0833 41.3333C18.0833 42.0184 18.3555 42.6756 18.84 43.1599C19.3244 43.6443 19.9815 43.9166 20.6667 43.9166H23.25V46.4999C23.25 47.185 23.5222 47.8422 24.0067 48.3266C24.4911 48.811 25.1482 49.0833 25.8333 49.0833C26.5184 49.0833 27.1756 48.811 27.66 48.3266C28.1444 47.8422 28.4167 47.185 28.4167 46.4999V43.9166H31V46.4999C31 47.185 31.2723 47.8422 31.7567 48.3266C32.241 48.811 32.8982 49.0833 33.5833 49.0833C34.2684 49.0833 34.9256 48.811 35.41 48.3266C35.8944 47.8422 36.1667 47.185 36.1667 46.4999V43.9166C38.2222 43.9166 40.1933 43.1 41.6467 41.6466C43.1001 40.1932 43.9167 38.2219 43.9167 36.1666C43.9123 34.2583 43.2042 32.4184 41.9275 30.9999C43.2042 29.5814 43.9123 27.7416 43.9167 25.8333C43.9167 23.7778 43.1001 21.8066 41.6467 20.3532C40.1933 18.8998 38.2222 18.0833 36.1667 18.0833ZM36.1667 38.7499H28.4167V33.5833H36.1667C36.8518 33.5833 37.509 33.8555 37.9933 34.3399C38.4777 34.8243 38.75 35.4815 38.75 36.1666C38.75 36.8517 38.4777 37.5089 37.9933 37.9933C37.509 38.4776 36.8518 38.7499 36.1667 38.7499ZM36.1667 28.4166H28.4167V23.2499H36.1667C36.8518 23.2499 37.509 23.5221 37.9933 24.0065C38.4777 24.491 38.75 25.1481 38.75 25.8333C38.75 26.5184 38.4777 27.1756 37.9933 27.6599C37.509 28.1443 36.8518 28.4166 36.1667 28.4166Z" fill="white"/>
</svg>
