<svg width="18" height="18" viewBox="0 0 18 18" fill="none" xmlns="http://www.w3.org/2000/svg">
<path d="M6.00009 9.75006L8.97775 12.1322C9.40567 12.4745 10.0294 12.4087 10.3764 11.9846L16.5001 4.50006" stroke="#00D395" stroke-linecap="round"/>
<path fill-rule="evenodd" clip-rule="evenodd" d="M8.59565 8.53381L11.637 4.81663C11.8118 4.60291 11.7803 4.2879 11.5666 4.11304C11.3529 3.93817 11.0379 3.96967 10.863 4.1834L7.8274 7.8936L8.59565 8.53381ZM5.4267 12.4016L4.65443 11.758C4.47977 11.9048 4.22201 11.9165 4.03309 11.7748L1.8 10.1C1.57908 9.93433 1.26568 9.9791 1.1 10.2C0.934313 10.4209 0.979085 10.7343 1.2 10.9L3.43309 12.5748C4.04867 13.0365 4.90791 12.9551 5.4267 12.4016Z" fill="white"/>
</svg>
